<svg version="1.1" id="Layer_1" xmlns="http://www.w3.org/2000/svg" x="0" y="0" viewBox="0 0 960 960" xml:space="preserve"><style>.st0{fill:#f4da40}.st1{fill:#ffed6c}.st4{fill:#fbb03b}</style><path class="st0" d="M352.1 420.2c-68.1.9-124.2-49.8-125-113-.8-63.1 53.9-115.2 122-116.1s124.2 49.8 125 113c.8 63.2-53.9 115.3-122 116.1zm-1.5-204.1c-55.1 0-99.9 40.2-99.9 89.6s44.8 89.6 99.9 89.6 99.9-40.2 99.9-89.6-44.8-89.6-99.9-89.6zm260.3 204.1c-68.1.9-124.2-49.8-125-113S539.8 191.9 608 191.1c68.1-.9 124.2 49.8 125 113 .7 63.2-54 115.3-122.1 116.1zm-1.5-204.1c-55.1 0-99.9 40.2-99.9 89.6s44.8 89.6 99.9 89.6 99.9-40.2 99.9-89.6c0-49.4-44.8-89.6-99.9-89.6zm-36.5 442.3h-189l34.3-46.7c21.1-28.8 32.5-63.5 32.5-99.2v-36.1H506l.1 36.4c.1 35.5 11.4 70 32.3 98.6l34.5 47z"/><path class="st1" d="M664.7 166H292.1s-5 76.3 15.7 146.3c28.2 94.8 118.5 183.2 170.6 183.3l-.1.4h.7v.8c50-.2 142.1-89.7 170.3-184.5 20.7-70 15.4-146.3 15.4-146.3z"/><path fill="#a67c52" d="M329.2 658.4h298.4v128.3H329.2z"/><path class="st1" d="M362.6 683.7h231.7v77.8H362.6z"/><path d="M645.4 817.7h-334v-20.1c0-6 4.8-10.8 10.8-10.8h312.3c6 0 10.8 4.8 10.8 10.8v20.1h.1z" fill="#754c24"/><path class="st1" d="M572.9 658.4h-189V642c0-6.4 5.2-11.5 11.5-11.5h165.9c6.4 0 11.5 5.2 11.5 11.5v16.4h.1z"/><circle class="st4" cx="384.4" cy="702.1" r="8.8"/><circle class="st4" cx="575.2" cy="702.1" r="8.8"/><circle class="st4" cx="384.4" cy="742.9" r="8.8"/><circle class="st4" cx="575.2" cy="742.9" r="8.8"/><path class="st0" d="M666.9 166.9H289.4c-6.8 0-12.3-5.5-12.3-12.3 0-6.8 5.5-12.3 12.3-12.3h377.4c6.8 0 12.3 5.5 12.3 12.3 0 6.8-5.5 12.3-12.2 12.3z"/><path class="st4" d="M478.1 223.5l20.5 63H565l-53.7 39 20.5 63.1-53.7-39-53.6 39 20.5-63.1-53.7-39h66.4z"/></svg>